<svg version="1.1" id="Layer_1" xmlns="http://www.w3.org/2000/svg" xmlns:xlink="http://www.w3.org/1999/xlink" x="0px" y="0px"
	 width="100%" viewBox="0 0 576 576" enable-background="new 0 0 576 576" xml:space="preserve">
<path fill="#000000" opacity="1.000000" stroke="none" 
	d="
M381.000000,577.000000 
	C254.000000,577.000000 127.500000,577.000000 1.000000,577.000000 
	C1.000000,385.000000 1.000000,193.000000 1.000000,1.000000 
	C193.000000,1.000000 385.000000,1.000000 577.000000,1.000000 
	C577.000000,193.000000 577.000000,385.000000 577.000000,577.000000 
	C511.833344,577.000000 446.666656,577.000000 381.000000,577.000000 
M246.785110,216.345840 
	C233.301880,216.317871 219.817108,216.188034 206.337387,216.391724 
	C204.665039,216.416992 202.348068,217.806046 201.466858,219.254776 
	C193.887009,231.716110 186.559021,244.330841 179.175659,256.911407 
	C174.176773,265.429016 169.209747,273.965332 163.899673,283.056183 
	C171.083176,283.056183 177.528824,283.065857 183.974457,283.054596 
	C217.929947,282.995361 251.885452,282.930817 286.604309,283.039490 
	C287.375763,283.018890 288.147247,282.998291 289.863373,283.056305 
	C331.890472,283.056305 373.917572,283.056305 416.638031,283.056305 
	C415.366730,280.787689 414.524811,279.219055 413.622681,277.685791 
	C405.383942,263.682922 397.158112,249.672363 388.883026,235.690979 
	C376.644226,215.012604 364.368286,194.356201 352.219421,173.010239 
	C354.620789,168.145584 357.022156,163.280914 359.697937,157.860413 
	C353.537445,157.860413 348.118347,157.860413 342.272766,157.258331 
	C324.852448,127.831314 307.432129,98.404289 289.778687,68.583458 
	C264.777802,111.199760 240.172714,153.141342 215.069199,195.932556 
	C238.835114,195.932556 261.484955,195.932556 284.960541,195.932556 
	C280.653381,203.121155 276.777161,209.590469 271.979553,216.069138 
	C263.877930,216.195908 255.776306,216.322678 246.785110,216.345840 
M289.826050,317.106110 
	C286.413757,316.785339 287.213654,319.294495 287.208405,321.126160 
	C287.166840,335.614594 287.291046,350.104645 287.116730,364.591217 
	C286.991608,374.989716 281.419891,380.317566 271.343903,380.195312 
	C261.966339,380.081543 256.947540,374.595917 256.910370,364.402252 
	C256.894592,360.072357 256.900604,355.742371 256.900146,351.412445 
	C256.899017,340.134735 256.899780,328.857025 256.899780,317.384399 
	C250.367004,317.384399 244.320618,317.384399 237.992035,317.384399 
	C237.992035,333.465607 237.896881,349.263397 238.016937,365.059540 
	C238.156006,383.358398 248.085037,394.179291 266.254761,396.119904 
	C291.631744,398.830231 305.901764,386.038940 305.895020,360.590515 
	C305.891998,349.099518 305.894135,337.608490 305.893951,326.117493 
	C305.893890,323.190613 305.893951,320.263733 305.893951,317.105347 
	C300.395721,317.105347 295.583649,317.105347 289.826050,317.106110 
M187.062943,372.628876 
	C181.177444,354.209595 175.291946,335.790283 169.405380,317.367615 
	C162.217346,317.367615 155.337265,317.367615 148.260376,317.367615 
	C148.484955,318.121368 148.590973,318.589569 148.761353,319.033020 
	C156.540253,339.280182 164.299408,359.534973 172.126831,379.763397 
	C174.028442,384.677704 174.888260,391.388336 178.535767,393.844574 
	C182.230972,396.332886 188.798248,394.387787 194.082809,394.747986 
	C197.206024,394.960815 198.285446,393.601532 199.286896,390.897034 
	C204.694275,376.294189 210.335876,361.778137 215.881912,347.226532 
	C219.637863,337.371674 223.369476,327.507538 227.318497,317.103455 
	C221.409195,317.103455 216.113571,317.276062 210.837006,317.033722 
	C208.019272,316.904358 206.844162,317.850891 205.997726,320.532410 
	C201.764969,333.941467 197.386398,347.306519 192.870941,360.623230 
	C191.403793,364.950104 189.366989,369.083832 187.062943,372.628876 
M365.390686,378.677582 
	C357.291199,378.677582 349.191711,378.677582 340.592957,378.677582 
	C340.592957,357.899902 340.592957,337.660339 340.592957,317.449066 
	C334.189270,317.449066 328.299133,317.449066 322.524353,317.449066 
	C322.524353,343.352203 322.524353,368.896240 322.524353,394.290833 
	C339.793396,394.290833 356.675903,394.290833 373.501831,394.290833 
	C373.501831,388.938293 373.501831,384.003387 373.501831,378.677643 
	C370.956299,378.677643 368.652069,378.677643 365.390686,378.677582 
M402.023163,317.100677 
	C396.770660,317.100677 391.518158,317.100677 386.309021,317.100677 
	C386.309021,343.269073 386.309021,368.696747 386.309021,394.405701 
	C403.389526,394.405701 420.273773,394.405701 437.314270,394.405701 
	C437.314270,389.122772 437.314270,384.088531 437.314270,378.425171 
	C426.122131,378.425171 415.247742,378.425171 404.268585,378.425171 
	C404.268585,359.145721 404.300781,340.499847 404.210815,321.854523 
	C404.203186,320.272247 403.379608,318.693909 402.023163,317.100677 
M363.071411,425.588623 
	C360.618683,424.058929 358.287781,421.498566 355.690491,421.191498 
	C347.686066,420.245209 339.579803,420.159790 331.311462,419.729401 
	C331.311462,434.252991 331.311462,447.953796 331.311462,461.817719 
	C339.084717,461.817719 346.562134,462.036987 354.020447,461.753815 
	C360.965698,461.490051 365.761139,457.607117 366.690857,451.916962 
	C367.574188,446.510529 364.833923,442.802643 359.919037,440.226654 
	C364.695984,436.043732 366.498566,431.620239 363.071411,425.588623 
M281.260773,453.510834 
	C282.533691,453.038055 283.792755,452.207397 285.082062,452.157288 
	C289.570587,451.983002 294.086395,452.312683 298.558807,451.991302 
	C301.611450,451.771912 303.355560,452.844025 303.992279,455.656464 
	C305.251038,461.216339 308.421722,463.404572 314.481567,461.338684 
	C308.604401,448.196716 302.759216,434.912537 296.690369,421.731323 
	C295.437469,419.010071 288.900146,419.372040 287.621277,422.173279 
	C281.650391,435.251862 275.820435,448.394836 269.851074,461.713348 
	C272.792145,461.713348 275.244354,461.713348 277.622498,461.713348 
	C278.794006,459.115936 279.882477,456.702637 281.260773,453.510834 
M236.529327,461.923706 
	C242.643250,461.923706 248.757187,461.923706 254.886200,461.923706 
	C254.886200,459.542358 254.886200,457.730774 254.886200,455.633087 
	C247.629913,455.633087 240.512360,455.633087 232.924591,455.633087 
	C232.924591,443.762787 232.924591,432.170197 232.924591,420.350403 
	C230.220306,420.350403 227.989960,420.350403 225.670502,420.350403 
	C225.670502,434.309113 225.670502,448.015076 225.670502,461.923615 
	C229.222900,461.923615 232.382370,461.923615 236.529327,461.923706 
z"/>
<path fill="#FDFDFC" opacity="1.000000" stroke="none" 
	d="
M272.900970,216.059784 
	C276.777161,209.590469 280.653381,203.121155 284.960541,195.932556 
	C261.484955,195.932556 238.835114,195.932556 215.069199,195.932556 
	C240.172714,153.141342 264.777802,111.199760 289.778687,68.583458 
	C307.432129,98.404289 324.852448,127.831314 342.133972,157.794952 
	C339.912079,158.775650 337.780609,159.741257 335.756073,159.553589 
	C331.727386,159.180130 329.860565,161.152985 328.051849,164.379395 
	C319.677551,179.317261 311.087311,194.134232 302.549591,208.980225 
	C297.021790,218.592361 291.451263,228.179932 285.650909,238.208984 
	C281.187012,230.454300 277.044006,223.257050 272.900970,216.059784 
z"/>
<path fill="#FDFEFD" opacity="1.000000" stroke="none" 
	d="
M352.108154,173.690430 
	C364.368286,194.356201 376.644226,215.012604 388.883026,235.690979 
	C397.158112,249.672363 405.383942,263.682922 413.622681,277.685791 
	C414.524811,279.219055 415.366730,280.787689 416.638031,283.056305 
	C373.917572,283.056305 331.890472,283.056305 289.422058,282.660583 
	C299.535278,263.994446 310.050262,245.701050 320.655487,227.460114 
	C331.092072,209.509186 341.620209,191.611465 352.108154,173.690430 
z"/>
<path fill="#FDFEFD" opacity="1.000000" stroke="none" 
	d="
M285.840942,282.868103 
	C251.885452,282.930817 217.929947,282.995361 183.974457,283.054596 
	C177.528824,283.065857 171.083176,283.056183 163.899673,283.056183 
	C169.209747,273.965332 174.176773,265.429016 179.175659,256.911407 
	C186.559021,244.330841 193.887009,231.716110 201.466858,219.254776 
	C202.348068,217.806046 204.665039,216.416992 206.337387,216.391724 
	C219.817108,216.188034 233.301880,216.317871 247.250214,216.746185 
	C260.423859,239.053711 273.132385,260.960907 285.840942,282.868103 
z"/>
<path fill="#559D38" opacity="1.000000" stroke="none" 
	d="
M286.222626,282.953796 
	C273.132385,260.960907 260.423859,239.053711 247.694992,216.797974 
	C255.776306,216.322678 263.877930,216.195908 272.440247,216.064453 
	C277.044006,223.257050 281.187012,230.454300 285.650909,238.208984 
	C291.451263,228.179932 297.021790,218.592361 302.549591,208.980225 
	C311.087311,194.134232 319.677551,179.317261 328.051849,164.379395 
	C329.860565,161.152985 331.727386,159.180130 335.756073,159.553589 
	C337.780609,159.741257 339.912079,158.775650 342.347229,158.096008 
	C348.118347,157.860413 353.537445,157.860413 359.697937,157.860413 
	C357.022156,163.280914 354.620789,168.145584 352.163788,173.350327 
	C341.620209,191.611465 331.092072,209.509186 320.655487,227.460114 
	C310.050262,245.701050 299.535278,263.994446 288.949738,282.621307 
	C288.147247,282.998291 287.375763,283.018890 286.222626,282.953796 
z"/>
<path fill="#FAFAFA" opacity="1.000000" stroke="none" 
	d="
M290.298828,317.105713 
	C295.583649,317.105347 300.395721,317.105347 305.893951,317.105347 
	C305.893951,320.263733 305.893890,323.190613 305.893951,326.117493 
	C305.894135,337.608490 305.891998,349.099518 305.895020,360.590515 
	C305.901764,386.038940 291.631744,398.830231 266.254761,396.119904 
	C248.085037,394.179291 238.156006,383.358398 238.016937,365.059540 
	C237.896881,349.263397 237.992035,333.465607 237.992035,317.384399 
	C244.320618,317.384399 250.367004,317.384399 256.899780,317.384399 
	C256.899780,328.857025 256.899017,340.134735 256.900146,351.412445 
	C256.900604,355.742371 256.894592,360.072357 256.910370,364.402252 
	C256.947540,374.595917 261.966339,380.081543 271.343903,380.195312 
	C281.419891,380.317566 286.991608,374.989716 287.116730,364.591217 
	C287.291046,350.104645 287.166840,335.614594 287.208405,321.126160 
	C287.213654,319.294495 286.413757,316.785339 290.298828,317.105713 
z"/>
<path fill="#F9F9F9" opacity="1.000000" stroke="none" 
	d="
M187.326843,372.967407 
	C189.366989,369.083832 191.403793,364.950104 192.870941,360.623230 
	C197.386398,347.306519 201.764969,333.941467 205.997726,320.532410 
	C206.844162,317.850891 208.019272,316.904358 210.837006,317.033722 
	C216.113571,317.276062 221.409195,317.103455 227.318497,317.103455 
	C223.369476,327.507538 219.637863,337.371674 215.881912,347.226532 
	C210.335876,361.778137 204.694275,376.294189 199.286896,390.897034 
	C198.285446,393.601532 197.206024,394.960815 194.082809,394.747986 
	C188.798248,394.387787 182.230972,396.332886 178.535767,393.844574 
	C174.888260,391.388336 174.028442,384.677704 172.126831,379.763397 
	C164.299408,359.534973 156.540253,339.280182 148.761353,319.033020 
	C148.590973,318.589569 148.484955,318.121368 148.260376,317.367615 
	C155.337265,317.367615 162.217346,317.367615 169.405380,317.367615 
	C175.291946,335.790283 181.177444,354.209595 187.326843,372.967407 
z"/>
<path fill="#F5F5F5" opacity="1.000000" stroke="none" 
	d="
M365.869263,378.677612 
	C368.652069,378.677643 370.956299,378.677643 373.501831,378.677643 
	C373.501831,384.003387 373.501831,388.938293 373.501831,394.290833 
	C356.675903,394.290833 339.793396,394.290833 322.524353,394.290833 
	C322.524353,368.896240 322.524353,343.352203 322.524353,317.449066 
	C328.299133,317.449066 334.189270,317.449066 340.592957,317.449066 
	C340.592957,337.660339 340.592957,357.899902 340.592957,378.677582 
	C349.191711,378.677582 357.291199,378.677582 365.869263,378.677612 
z"/>
<path fill="#F9F9F9" opacity="1.000000" stroke="none" 
	d="
M402.479126,317.107208 
	C403.379608,318.693909 404.203186,320.272247 404.210815,321.854523 
	C404.300781,340.499847 404.268585,359.145721 404.268585,378.425171 
	C415.247742,378.425171 426.122131,378.425171 437.314270,378.425171 
	C437.314270,384.088531 437.314270,389.122772 437.314270,394.405701 
	C420.273773,394.405701 403.389526,394.405701 386.309021,394.405701 
	C386.309021,368.696747 386.309021,343.269073 386.309021,317.100677 
	C391.518158,317.100677 396.770660,317.100677 402.479126,317.107208 
z"/>
<path fill="#F3F3F3" opacity="1.000000" stroke="none" 
	d="
M363.326111,425.876038 
	C366.498566,431.620239 364.695984,436.043732 359.919037,440.226654 
	C364.833923,442.802643 367.574188,446.510529 366.690857,451.916962 
	C365.761139,457.607117 360.965698,461.490051 354.020447,461.753815 
	C346.562134,462.036987 339.084717,461.817719 331.311462,461.817719 
	C331.311462,447.953796 331.311462,434.252991 331.311462,419.729401 
	C339.579803,420.159790 347.686066,420.245209 355.690491,421.191498 
	C358.287781,421.498566 360.618683,424.058929 363.326111,425.876038 
M350.152985,444.050781 
	C346.361359,444.050781 342.569763,444.050781 338.704468,444.050781 
	C338.704468,448.115967 338.704468,451.735779 338.704468,456.078705 
	C344.324493,455.742279 349.800446,455.766937 355.122833,454.875214 
	C356.664703,454.616913 358.745087,451.758728 358.793396,450.042175 
	C358.841309,448.340210 356.886688,446.288055 355.331635,444.942932 
	C354.370392,444.111481 352.515045,444.313660 350.152985,444.050781 
M338.668854,427.443939 
	C338.668854,430.841705 338.668854,434.239471 338.668854,437.856506 
	C343.218842,437.856506 347.343262,438.079498 351.430878,437.787323 
	C354.820007,437.545074 357.319672,436.042145 357.234711,431.911469 
	C357.151031,427.843781 354.573883,426.929047 351.355865,426.826904 
	C347.394043,426.701172 343.424774,426.810913 338.668854,427.443939 
z"/>
<path fill="#F3F3F3" opacity="1.000000" stroke="none" 
	d="
M281.115845,453.900085 
	C279.882477,456.702637 278.794006,459.115936 277.622498,461.713348 
	C275.244354,461.713348 272.792145,461.713348 269.851074,461.713348 
	C275.820435,448.394836 281.650391,435.251862 287.621277,422.173279 
	C288.900146,419.372040 295.437469,419.010071 296.690369,421.731323 
	C302.759216,434.912537 308.604401,448.196716 314.481567,461.338684 
	C308.421722,463.404572 305.251038,461.216339 303.992279,455.656464 
	C303.355560,452.844025 301.611450,451.771912 298.558807,451.991302 
	C294.086395,452.312683 289.570587,451.983002 285.082062,452.157288 
	C283.792755,452.207397 282.533691,453.038055 281.115845,453.900085 
M289.164124,435.618927 
	C287.767059,438.980194 286.369995,442.341461 284.889832,445.902588 
	C290.055145,445.902588 294.491089,445.902588 299.583801,445.902588 
	C297.123199,440.206787 294.833649,434.906891 292.129333,428.646881 
	C290.973145,431.403412 290.236969,433.158569 289.164124,435.618927 
z"/>
<path fill="#EEEEEE" opacity="1.000000" stroke="none" 
	d="
M236.035583,461.923645 
	C232.382370,461.923615 229.222900,461.923615 225.670502,461.923615 
	C225.670502,448.015076 225.670502,434.309113 225.670502,420.350403 
	C227.989960,420.350403 230.220306,420.350403 232.924591,420.350403 
	C232.924591,432.170197 232.924591,443.762787 232.924591,455.633087 
	C240.512360,455.633087 247.629913,455.633087 254.886200,455.633087 
	C254.886200,457.730774 254.886200,459.542358 254.886200,461.923706 
	C248.757187,461.923706 242.643250,461.923706 236.035583,461.923645 
z"/>
<path fill="#0A0A0A" opacity="1.000000" stroke="none" 
	d="
M350.607056,444.051331 
	C352.515045,444.313660 354.370392,444.111481 355.331635,444.942932 
	C356.886688,446.288055 358.841309,448.340210 358.793396,450.042175 
	C358.745087,451.758728 356.664703,454.616913 355.122833,454.875214 
	C349.800446,455.766937 344.324493,455.742279 338.704468,456.078705 
	C338.704468,451.735779 338.704468,448.115967 338.704468,444.050781 
	C342.569763,444.050781 346.361359,444.050781 350.607056,444.051331 
z"/>
<path fill="#070707" opacity="1.000000" stroke="none" 
	d="
M339.063782,427.131409 
	C343.424774,426.810913 347.394043,426.701172 351.355865,426.826904 
	C354.573883,426.929047 357.151031,427.843781 357.234711,431.911469 
	C357.319672,436.042145 354.820007,437.545074 351.430878,437.787323 
	C347.343262,438.079498 343.218842,437.856506 338.668854,437.856506 
	C338.668854,434.239471 338.668854,430.841705 339.063782,427.131409 
z"/>
<path fill="#070707" opacity="1.000000" stroke="none" 
	d="
M289.332458,435.266327 
	C290.236969,433.158569 290.973145,431.403412 292.129333,428.646881 
	C294.833649,434.906891 297.123199,440.206787 299.583801,445.902588 
	C294.491089,445.902588 290.055145,445.902588 284.889832,445.902588 
	C286.369995,442.341461 287.767059,438.980194 289.332458,435.266327 
z"/>
</svg>